<svg width="102" height="54" viewBox="0 0 102 54" fill="none" xmlns="http://www.w3.org/2000/svg">
<path d="M6.5549 26.9096L1.72498 15.8698L5.86491 12.4198L16.5598 9.65986L29.3246 11.0398L33.1195 15.1798L33.4645 23.1147L38.2944 20.3547L38.6394 6.89991L50.7142 2.06998L51.7492 24.8396L61.4091 22.0797L63.1341 20.0097H75.8989L82.1088 25.5296L85.9037 20.0097L99.0135 19.6647L99.7035 22.0797L90.3887 36.2245L97.6336 49.3343L96.9436 50.0243L87.9737 50.7143L80.7288 46.5743L76.9339 51.7492C73.4839 51.4042 66.446 50.7143 65.894 50.7143C65.342 50.7143 64.744 49.7943 64.514 49.3343L60.3741 50.7143L33.8095 49.3343L23.4597 46.2293L17.5947 50.7143L8.96987 28.6346L6.5549 26.9096Z" fill="#FFCB44"/>
<path d="M64.169 29.0928L54.8718 39.3294C54.097 36.1797 54.4844 33.8174 56.8087 31.0614C58.6682 28.8565 62.4904 28.8303 64.169 29.0928Z" fill="#386187"/>
<path d="M34.4995 35.3986C34.4995 30.715 38.8004 28.7078 40.9509 28.2896H42.0894V42.0894H40.5714C38.5474 41.8106 34.4995 40.0821 34.4995 35.3986Z" fill="#386187"/>
<path d="M47.4105 0.191795C47.1131 0.295883 44.9421 1.24757 42.5926 2.30336C37.8788 4.41492 37.2096 4.84615 36.5107 6.25882L36.1241 7.03206V13.1734C36.1241 19.2405 36.1241 19.2999 35.8118 19.4635C35.6483 19.5676 35.4698 19.6122 35.4401 19.5676C35.3955 19.5379 35.4252 18.9877 35.5144 18.3482C35.7077 16.7423 35.4996 15.4932 34.8007 14.0062C33.8936 12.1177 33.0757 11.1362 30.8303 9.21797C30.072 8.57856 28.5106 7.83505 26.8303 7.31459C25.5217 6.92797 25.4027 6.9131 21.7744 6.89823C17.5364 6.89823 16.9119 6.98745 12.2575 8.16219C9.34297 8.9057 3.29082 10.8239 2.36887 11.2849C0.480359 12.2664 -0.50107 14.8686 0.257307 16.9356C2.74062 23.6866 3.43952 25.5305 3.70718 26.0956C4.03432 26.7499 5.31316 28.1774 5.44699 28.0287C5.4916 27.9841 5.74439 28.0584 5.99718 28.1923C6.24998 28.3261 6.65147 28.4748 6.90426 28.5343C7.24628 28.5938 7.36524 28.7127 7.43959 29.1291C7.66264 30.1403 14.5624 49.6648 14.8449 50.0663C15.2018 50.557 16.1981 51.5384 16.1981 51.3897C16.1981 51.3302 16.4806 51.4195 16.8227 51.5979C17.1647 51.7763 17.819 51.9548 18.2948 51.9845C19.8859 52.1332 20.4064 51.8953 23.6629 49.5607L26.6369 47.4343L27.3656 48.1629C29.4474 50.2447 34.1761 51.8061 37.4922 51.5087C38.3398 51.4343 38.9197 51.4789 39.6483 51.6574C40.5852 51.8804 41.0164 51.8656 45.641 51.5979C48.3771 51.4492 50.8158 51.241 51.0389 51.1518C51.3809 51.018 51.7675 51.0477 52.972 51.3154C55.485 51.8358 60.4814 51.702 62.6227 51.0477C62.7863 51.0031 62.9052 51.0923 62.9647 51.3154C63.1134 51.8061 63.9164 52.6091 64.5261 52.8767C66.0131 53.531 66.0875 53.531 71.7381 53.3674C74.6824 53.2782 77.4334 53.1295 77.8497 53.0552C78.9204 52.847 79.8423 52.2224 80.7346 51.0626C81.3591 50.2744 81.5524 50.1257 81.716 50.2596C81.8349 50.3488 81.9242 50.5124 81.9242 50.6165C81.9242 50.7057 82.281 51.1667 82.7123 51.6128C83.9316 52.9213 84.5116 53.0849 88.0209 53.2336C89.612 53.2931 92.363 53.3674 94.1177 53.3972C97.1958 53.4418 97.3445 53.4269 98.0731 53.0998C100.125 52.1778 101.226 49.7986 100.601 47.6573C100.393 46.9435 99.7089 45.9621 96.3185 41.4713L92.3035 36.1329L96.4374 30.7648C102.222 23.2851 101.999 23.642 101.999 21.8873C101.999 20.5193 101.642 19.6866 100.601 18.6308C99.1587 17.1438 99.1735 17.1586 92.2887 17.4412C85.4038 17.7386 85.0766 17.798 83.8722 18.8092C83.3814 19.2107 81.7309 21.3223 81.6119 21.6643C81.5821 21.7684 81.2253 21.4115 80.8089 20.8464C79.8572 19.5379 78.846 18.4523 78.3256 18.1847C77.5821 17.798 76.5114 17.694 70.8162 17.4412C65.6116 17.2181 65.0763 17.2181 64.3179 17.4412C63.3067 17.7386 62.355 18.4375 61.7751 19.3297L61.329 20.0137L59.4702 20.1029C57.5669 20.1921 55.262 20.668 54.2657 21.1736C54.0129 21.3074 53.775 21.3966 53.7452 21.3669C53.7155 21.3371 53.6114 17.5304 53.537 12.9206C53.4478 8.29602 53.3289 4.25134 53.2991 3.9242C53.0761 2.3777 51.6634 0.637897 50.2507 0.221535C49.2991 -0.060997 48.1541 -0.0758705 47.4105 0.191795ZM49.2098 4.2216C49.3437 4.38517 49.4478 7.03206 49.5965 14.5861C49.7006 20.1773 49.7898 25.6346 49.8046 26.735V28.7276L50.6076 27.9692C54.4887 24.2963 60.9126 23.0621 65.9834 25.0249C66.6971 25.2926 67.396 25.5751 67.5447 25.6346C67.6934 25.6941 67.173 24.9208 66.3997 23.9097C65.6116 22.8985 64.9722 21.9914 64.9722 21.9022C64.9722 21.813 65.0912 21.6345 65.2399 21.5156C65.4629 21.3223 66.0875 21.3223 70.9202 21.5305C73.9091 21.6643 76.4222 21.8279 76.5263 21.8873C76.6304 21.9468 77.7308 23.3595 78.965 25.0101C80.2141 26.6607 81.2996 28.1031 81.4037 28.2072C81.5375 28.3707 82.0431 27.7759 83.9168 25.2777C85.1956 23.5677 86.3555 22.0807 86.4893 21.9617C86.6529 21.8279 88.2142 21.7089 92.1697 21.5305C97.0917 21.3223 97.6419 21.3223 97.8798 21.5305C98.0285 21.6494 98.1178 21.8576 98.088 21.9914C98.0583 22.1104 95.6493 25.3075 92.7348 29.0845C89.8053 32.8615 87.4261 36.0288 87.4261 36.1032C87.4261 36.1924 89.5377 39.0475 92.1102 42.4528C96.7348 48.5941 97.1512 49.2335 96.5564 49.4566C96.14 49.6053 86.0729 49.2187 85.8499 49.0402C85.7309 48.951 84.7197 47.6722 83.6045 46.2C82.0134 44.1331 81.5227 43.5829 81.4037 43.7316C79.9762 45.635 77.2698 49.0551 77.1806 49.1294C76.9724 49.2484 67.1135 49.5458 66.6823 49.4417C66.3402 49.3525 66.2956 49.2781 66.3402 48.9361C66.37 48.6982 68.3328 45.9918 71.0392 42.4081C73.5969 39.0326 75.6787 36.1924 75.6787 36.1032C75.6787 35.8801 69.8645 28.3707 69.7158 28.4153C69.5373 28.4748 60.3624 39.449 60.4368 39.5085C60.4665 39.5382 60.868 39.4044 61.329 39.1813C62.3699 38.7055 63.7528 37.4118 64.7045 36.014C65.1655 35.33 65.5224 34.9285 65.7008 34.9285C66.0428 34.9285 70.9202 40.7873 70.9202 41.2037C70.9202 41.6052 70.3998 42.5568 69.8496 43.1814C68.779 44.4156 66.3849 45.7837 63.8718 46.6015C61.4034 47.4045 59.7528 47.6424 56.868 47.6276C54.0724 47.6127 52.7787 47.3748 51.1132 46.5569L50.2507 46.1257V46.5272C50.2507 47.3896 50.2656 47.3896 45.3139 47.6573C40.4513 47.925 40.2877 47.9101 40.2877 47.2409C40.2877 47.0476 40.2134 46.9733 40.0796 47.0179C39.1576 47.3748 38.3398 47.4789 36.5702 47.4789C34.7114 47.4937 34.4735 47.4491 33.2988 47.0328C30.9642 46.2149 29.3731 44.832 28.2578 42.6758C26.2057 38.7055 26.1314 33.8429 28.0645 30.0957C29.1946 27.9097 32.8675 24.8168 35.5888 23.761C36.8527 23.2703 38.5926 22.8985 39.6483 22.8836H40.2729L40.2431 15.3742L40.2134 7.84992L44.4514 5.93167C46.786 4.87589 48.7637 4.01342 48.853 3.99855C48.9422 3.99855 49.1057 4.10264 49.2098 4.2216ZM25.6258 11.2106C28.1686 11.9095 30.1314 13.456 31.2467 15.6419C32.0497 17.233 31.559 19.404 29.7894 22.0658C28.4362 24.103 26.2057 26.7201 23.6778 29.2183C22.2651 30.6161 21.1053 31.8355 21.1053 31.9247C21.1053 32.0139 21.8488 34.6757 22.741 37.843C23.6481 41.0103 24.3767 43.7465 24.3469 43.91C24.2875 44.3413 18.9788 48.1629 18.5922 48.0588C18.4286 48.0142 18.2353 47.806 18.1461 47.5978C17.9082 46.9881 9.65524 23.3149 9.65524 23.2257C9.65524 23.181 9.34297 23.4933 8.97121 23.9097C8.15336 24.8168 7.70725 24.906 7.35037 24.2071C7.21654 23.9543 6.51764 22.1401 5.80387 20.1624C5.07523 18.1847 4.37634 16.2962 4.24251 15.9839C4.10868 15.6567 4.03432 15.285 4.07894 15.1363C4.15329 14.9281 4.9414 14.6158 7.17193 13.9021C12.0791 12.3258 16.0345 11.3147 18.6814 10.9875C20.2428 10.7942 24.5849 10.928 25.6258 11.2106Z" fill="#386187"/>
<path d="M19.8711 20.207C19.5588 20.2962 18.9789 20.5044 18.5625 20.668C17.9379 20.9505 17.8339 21.0397 17.9231 21.3074C17.9826 21.471 18.2502 22.4078 18.5179 23.3892C18.7855 24.3558 19.0383 25.1736 19.0681 25.2034C19.1722 25.3075 21.8785 22.036 22.4287 21.1587C22.7113 20.7126 22.8897 20.2962 22.8302 20.2368C22.6667 20.0732 20.5105 20.0583 19.8711 20.207Z" fill="#386187"/>
</svg>
